# xmcd
#
# Track frame offsets:
#	150
#	18247
#	45562
#
# Disc length: 656 seconds
# Revision: 1
# Processed by: cddbd v1.5.2PL0 Copyright (c) Steve Scherf et al.
# Submitted via: dBpowerAMP V12.0
#
DISCID=18028e03
DTITLE=ClayAiken,AKAClaytonHolmesGrissom,Raleigh,NC - Bridge Over Troubled Water
DYEAR=2003
DGENRE=Pop
TTITLE0=BridgeOverTroubledWater[single]
TTITLE1=ThisIsTheNight[single]
TTITLE2=DATA
EXTD=
EXTT0=
EXTT1=
EXTT2=
PLAYORDER=
